<svg height="512" viewBox="0 0 512.104 512.104" width="512" xmlns="http://www.w3.org/2000/svg"><path d="M420.037 7.504c2.17 0 3.61 1.78 3.61 3.63 0 .88-.33 1.79-1.06 2.52a108.293 108.293 0 01-49.27 49.66l-.01.01c23.71 27.77 38.03 63.79 38.03 103.17v99.55c0 46.52-19.98 88.36-51.82 117.43-5.32 4.85-5.49 13.16-.39 18.23l26.09 25.93a108.544 108.544 0 0131.024 62.3c1.058 7.757-4.97 14.67-12.8 14.67H102.252c-7.835 0-13.858-6.922-12.798-14.685a108.41 108.41 0 0112.112-37.005c4.99-9.22 11.33-17.75 18.91-25.28l25.61-25.45c5.12-5.09 4.93-13.42-.42-18.27-32.13-29.09-52.31-71.12-52.31-117.87v-99.55c0-43.91 17.79-83.65 46.57-112.42 28.77-28.77 68.52-46.57 112.42-46.57h167.691z" fill="#918291"/><path d="M420.037 7.504c2.17 0 3.61 1.78 3.61 3.63 0 .88-.33 1.79-1.06 2.52a108.293 108.293 0 01-49.27 49.66l-.01.01c23.71 27.77 38.03 63.79 38.03 103.17v99.55c0 46.52-19.98 88.36-51.82 117.43-5.32 4.85-5.49 13.16-.39 18.23l26.09 25.93a108.544 108.544 0 0131.024 62.3c1.058 7.757-4.97 14.67-12.8 14.67H102.252c-7.835 0-13.858-6.922-12.798-14.685a108.41 108.41 0 0112.112-37.005c4.99-9.22 11.33-17.75 18.91-25.28l25.61-25.45c5.12-5.09 4.93-13.42-.42-18.27-32.13-29.09-52.31-71.12-52.31-117.87v-99.55c0-43.91 17.79-83.65 46.57-112.42 28.77-28.77 68.52-46.57 112.42-46.57h167.691z" fill="#918291"/><path d="M420.037 7.504h-167.69c-43.9 0-83.65 17.8-112.42 46.57-28.78 28.77-46.57 68.51-46.57 112.42v99.55c0 46.75 20.18 88.78 52.31 117.87 5.35 4.85 5.54 13.18.42 18.27l-25.61 25.45a108.222 108.222 0 00-18.91 25.28 108.389 108.389 0 00-12.112 37.005c-1.06 7.763 4.962 14.685 12.798 14.685h63.187a108.362 108.362 0 014.21-8.669c4.99-9.22 11.33-17.75 18.91-25.28l25.61-25.45c5.12-5.09 4.93-13.42-.42-18.27-32.13-29.09-52.31-71.12-52.31-117.87v-99.55c0-43.91 17.79-83.65 46.57-112.42.982-.982 1.98-1.949 2.987-2.905v211.572h138.491l1.791-2.728c3.343-2.077 10.188-6.235 24.06-14.429a54.246 54.246 0 0010.005-7.609c14.125-13.596 19.771-33.826 14.734-52.804l-8.571-32.243v-3.589c0-37.532-14.612-73.79-41.341-100.137-11.34-11.178-24.27-20.168-38.275-26.763-7.408-3.489-5.099-14.565 3.085-14.842 1.811-.061 3.629-.092 5.455-.092h72.804a108.271 108.271 0 0029.353-36.871 3.54 3.54 0 001.06-2.52c-.001-1.851-1.441-3.631-3.611-3.631z" fill="#7a6d79"/><path d="M143.077 267.084c13.34 7.88 28.91 17.18 29.46 18.01.75 1.12 18.9 28.79 27.14 41.35 2.51 3.82 6.76 6.11 11.32 6.11h-4.19v33.71c0 4.33 1.16 8.38 3.21 11.86-43.18-16.95-73.83-59.04-73.83-108.17v-6.46l.86-1.14c1.76 1.8 3.78 3.4 6.03 4.73zm151.62 65.47c4.56 0 8.81-2.29 11.32-6.11 8.24-12.56 26.39-40.23 27.14-41.35.55-.83 16.12-10.13 29.46-18.01 1.98-1.17 3.78-2.55 5.39-4.1l.5.51v6.46c0 48.63-30.03 90.37-72.52 107.64 1.85-3.36 2.9-7.22 2.9-11.33v-33.71z" fill="#685e68"/><path d="M288.633 313.554v23.208h-81.826v29.502c0 4.33 1.16 8.38 3.21 11.86a23.527 23.527 0 0020.38 11.73h44.9c8.92 0 16.69-4.95 20.69-12.26 1.85-3.36 2.9-7.22 2.9-11.33v-52.71z" fill="#f3f0f3"/><path d="M206.807 313.554v52.71c0 4.33 1.16 8.38 3.21 11.86a23.527 23.527 0 0020.38 11.73h38.941c-8.7 0-16.31-4.71-20.38-11.73-2.05-3.48-3.21-7.53-3.21-11.86 0-4.81 3.9-8.71 8.71-8.71h40.239c1.411 0 2.807-.091 4.19-.241v-43.759z" fill="#e2dee2"/><path d="M238.429 299.075a7.5 7.5 0 01-6.389-11.417l5.27-8.61c3.348-5.457 9.161-8.74 15.556-8.788 6.364-.078 12.259 3.146 15.684 8.546l5.543 8.755a7.5 7.5 0 01-12.673 8.024l-5.54-8.75c-.877-1.383-2.207-1.558-2.901-1.576-.706.005-2.02.224-2.879 1.625l-5.266 8.604a7.494 7.494 0 01-6.405 3.587z" fill="#9c9c9c"/><path d="M375.917 234.614l-9.41-35.4v-8.22c0-31.39-12.72-59.8-33.29-80.37s-48.99-33.29-80.37-33.29c-62.77 0-113.66 50.89-113.66 113.66v8.22l-9.41 35.4a29.06 29.06 0 007.27 27.74c1.76 1.8 3.78 3.4 6.03 4.73 13.34 7.88 28.91 17.18 29.46 18.01.75 1.12 18.9 28.79 27.14 41.35a13.526 13.526 0 007.642 5.584v-2.945h73.76v3.471h13.618c4.56 0 8.81-2.29 11.32-6.11 8.24-12.56 26.39-40.23 27.14-41.35.55-.83 16.12-10.13 29.46-18.01a29.037 29.037 0 0013.3-32.47z" fill="#f3f0f3"/><path d="M210.834 193.702c.644-2.423.97-4.919.97-7.426v-4.444c0-9.128 1.08-18.003 3.116-26.507 2.852-11.911 11.546-21.595 23.048-25.803 12.151-4.445 25.27-6.876 38.962-6.876 31.38 0 59.8 12.72 80.37 33.29a114.728 114.728 0 015.394 5.784c-5.215-19.622-15.541-37.16-29.478-51.097-18.717-18.717-43.933-30.93-71.964-32.98l-.156.145-.027-.157a115.362 115.362 0 00-8.222-.298c-62.77 0-113.66 50.89-113.66 113.66v8.22l-9.41 35.4a29.06 29.06 0 007.27 27.74c1.76 1.8 3.78 3.4 6.03 4.73 13.34 7.88 28.91 17.18 29.46 18.01.75 1.12 18.9 28.79 27.14 41.35 2.51 3.82 6.76 6.11 11.32 6.11h73.426s-38.518-55.502-39.268-56.622c-.55-.83-16.12-10.13-29.46-18.01a29.248 29.248 0 01-6.03-4.73 29.06 29.06 0 01-7.27-27.74z" fill="#e2dee2"/><path d="M338.527 214.814c3.43 14.34-9.12 29.64-28.03 34.17-18.92 4.53-37.04-3.42-40.47-17.76-3.44-14.34 9.11-29.64 28.03-34.17 18.91-4.53 37.03 3.42 40.47 17.76zm-130.89-17.76c18.92 4.53 31.47 19.83 28.03 34.17-3.43 14.34-21.55 22.29-40.47 17.76-18.91-4.53-31.46-19.83-28.03-34.17 3.44-14.34 21.56-22.29 40.47-17.76z" fill="#918291"/><path d="M302.901 231.224c-3.037-12.66 6.404-26.066 21.672-32.151-7.396-3.388-16.856-4.333-26.516-2.019-18.92 4.53-31.47 19.83-28.03 34.17 3.43 14.34 21.55 22.29 40.47 17.76a46.413 46.413 0 006.374-2.019c-7.084-3.243-12.292-8.726-13.97-15.741zm-102.86-16.41c1.683-7.014 6.892-12.497 13.974-15.741a46.468 46.468 0 00-6.378-2.019c-18.91-4.53-37.03 3.42-40.47 17.76-3.43 14.34 9.12 29.64 28.03 34.17 9.664 2.314 19.124 1.37 26.519-2.017-15.263-6.084-24.703-19.492-21.675-32.153z" fill="#7a6d79"/><path d="M376.007 265.332c7.33-8.917 10.238-21.06 7.159-32.647l-9.156-34.453v-7.239c0-26.88-8.627-52.345-24.95-73.64a7.5 7.5 0 00-10.515-1.39 7.5 7.5 0 00-1.39 10.515c14.298 18.654 21.855 40.963 21.855 64.515v8.218c0 .65.084 1.298.251 1.926l9.408 35.4c2.47 9.294-1.585 19.2-9.863 24.088-30.27 17.879-30.646 18.442-31.889 20.308-.686 1.027-15.156 23.079-27.174 41.397a6.022 6.022 0 01-5.051 2.725h-16.22v-2.304a7.5 7.5 0 00-15 0v2.304h-21.25v-2.304a7.5 7.5 0 00-15 0v2.304h-16.22a6.023 6.023 0 01-5.051-2.725 51375.946 51375.946 0 00-27.174-41.396c-1.244-1.866-1.619-2.429-31.89-20.308-8.277-4.889-12.333-14.794-9.862-24.088l9.408-35.4a7.497 7.497 0 00.251-1.926v-8.218c0-58.538 47.625-106.162 106.163-106.162 22.871 0 44.657 7.163 63.004 20.715a7.5 7.5 0 108.912-12.066c-20.946-15.472-45.814-23.65-71.916-23.65-66.809 0-121.163 54.353-121.163 121.162v7.239l-9.156 34.453c-2.935 11.045-.43 22.595 6.159 31.375v5.899c0 36.075 15.759 70.286 43.236 93.86a7.47 7.47 0 004.88 1.808 7.501 7.501 0 004.887-13.192c-22.542-19.341-36.106-46.818-37.815-76.163 16.207 9.606 21.43 12.901 23.104 14.018 2.517 3.827 11.713 17.837 26.43 40.269a21.047 21.047 0 005.897 5.946v29.758c0 17.146 13.949 31.094 31.094 31.094h44.893c17.146 0 31.094-13.949 31.094-31.094v-29.758a21.008 21.008 0 005.897-5.946 73115.926 73115.926 0 0126.43-40.269c1.637-1.092 6.67-4.269 22.06-13.399-1.841 28.659-15.03 55.588-36.836 74.731a7.5 7.5 0 004.951 13.136 7.472 7.472 0 004.945-1.864c26.801-23.527 42.172-57.401 42.172-92.936v-4.626zm-84.62 100.931c0 8.875-7.22 16.094-16.094 16.094H230.4c-8.875 0-16.094-7.22-16.094-16.094v-26.207h12.916v2.229a7.5 7.5 0 0015 0v-2.229h21.25v2.229a7.5 7.5 0 0015 0v-2.229h12.916v26.207z"/><path d="M242.962 232.971c2.222-9.272-.31-18.956-7.128-27.267-6.325-7.711-15.718-13.374-26.447-15.944-10.729-2.571-21.669-1.78-30.801 2.228-9.844 4.32-16.489 11.805-18.71 21.077-4.394 18.338 10.668 37.723 33.575 43.211a52.492 52.492 0 0012.225 1.461c18.113-.001 33.685-9.736 37.286-24.766zm-14.587-3.495c-2.425 10.121-16.818 15.71-31.43 12.212-14.612-3.501-24.908-15.009-22.483-25.129 1.102-4.599 4.707-8.447 10.15-10.836 3.712-1.629 7.934-2.453 12.361-2.453 2.913 0 5.916.357 8.918 1.077 7.567 1.813 14.083 5.673 18.345 10.87 3.771 4.596 5.241 9.66 4.139 14.259zm83.868 26.799c22.907-5.488 37.969-24.873 33.575-43.211-2.221-9.272-8.866-16.757-18.71-21.077-9.132-4.007-20.072-4.799-30.801-2.228-10.729 2.57-20.122 8.233-26.447 15.944-6.818 8.312-9.35 17.995-7.128 27.267 3.602 15.032 19.171 24.765 37.287 24.765a52.44 52.44 0 0012.224-1.46zm-34.925-26.799c-1.102-4.599.368-9.663 4.138-14.259 4.263-5.197 10.778-9.057 18.345-10.87 7.568-1.813 15.125-1.324 21.279 1.376 5.444 2.389 9.048 6.237 10.15 10.836 2.425 10.12-7.872 21.628-22.483 25.129-14.609 3.5-29.004-2.092-31.429-12.212zm-42.794 68.493a7.496 7.496 0 0010.313-2.479l5.27-8.605c.857-1.4 2.168-1.619 2.873-1.624.708-.009 2.018.192 2.897 1.579l5.546 8.749a7.5 7.5 0 0010.35 2.319 7.5 7.5 0 002.319-10.35l-5.546-8.749c-3.398-5.36-9.197-8.548-15.536-8.548h-.146c-6.396.049-12.208 3.335-15.548 8.79l-5.27 8.605a7.5 7.5 0 002.478 10.313z"/><path d="M428.914 17.775a11.07 11.07 0 001.379-10.92A11.074 11.074 0 00420.033 0H252.347c-43.567 0-84.766 16.717-116.005 47.071-31.172 30.29-49.071 70.859-50.399 114.236l-.003.21-.085 31.983v72.543c0 46.922 19.965 91.912 54.777 123.434a5.038 5.038 0 011.671 3.653 5.045 5.045 0 01-1.502 3.732l-15.063 14.972a7.5 7.5 0 00-.032 10.606 7.5 7.5 0 0010.606.032l15.063-14.972a20.177 20.177 0 005.924-14.72 20.168 20.168 0 00-6.6-14.423c-31.677-28.684-49.845-69.621-49.845-112.315V193.52l.083-31.857c1.233-39.426 17.516-76.295 45.856-103.833C175.219 30.21 212.705 15 252.347 15h161.09c-8.953 16.195-22.357 29.744-38.441 38.911A167.584 167.584 0 00354 34.626a7.501 7.501 0 00-9.166 11.874 152.617 152.617 0 0122.759 21.674l.014.018c23.364 27.367 36.23 62.277 36.23 98.299v99.552c0 42.458-17.999 83.243-49.383 111.896-4.04 3.689-6.424 8.941-6.54 14.411s2.044 10.82 5.925 14.678l26.084 25.925a99.283 99.283 0 015.612 6.074l-4.043 3.675a42.335 42.335 0 01-28.528 11.026 7.5 7.5 0 000 15 57.302 57.302 0 0038.616-14.926l2.841-2.582c9.875 15.923 15.31 34.504 15.31 53.384a7.5 7.5 0 0015 0c0-30.673-12.478-60.667-34.233-82.29l-26.084-25.926a5.048 5.048 0 01-1.503-3.721 5.044 5.044 0 011.657-3.651c34.489-31.488 54.269-76.31 54.269-122.973v-99.552a166.568 166.568 0 00-34.065-100.904c18.871-11.357 34.332-28.047 44.142-47.812z"/><path d="M310.565 405.938c-18.469 7.695-38.056 11.597-58.219 11.597-19.623 0-38.728-3.705-56.784-11.011-3.838-1.553-8.211.299-9.766 4.139s.299 8.212 4.139 9.766c19.853 8.034 40.851 12.107 62.411 12.107 22.153 0 43.682-4.29 63.988-12.751a7.5 7.5 0 004.038-9.808 7.497 7.497 0 00-9.807-4.039zm-110.514 69.833a165.142 165.142 0 01-84.365-23.188l-3.862-2.296c.895-1.401 1.813-2.79 2.781-4.154a7.5 7.5 0 00-12.232-8.682c-14.008 19.736-21.412 42.958-21.412 67.153a7.5 7.5 0 0015 0c0-14.325 2.988-28.254 8.731-41.108l3.328 1.979a180.152 180.152 0 0092.031 25.295 7.5 7.5 0 000-14.999z"/></svg>