<svg height="512" viewBox="0 0 480 480" width="512" xmlns="http://www.w3.org/2000/svg"><path d="M152.006 108.751c48.057-32.287 108.952-35.016 158.819-10.002l-12.785 22.569a8 8 0 1013.921 7.886l32.194-56.829C367.91 79.673 392 61.803 392 37c0-20.402-16.598-37-37-37-33.798 0-49.847 41.837-24.757 64.471l-11.524 20.343C263.59 56.836 196.192 59.789 143.083 95.469a8 8 0 008.923 13.282zM355 16c11.58 0 21 9.421 21 21s-9.42 21-21 21-21-9.421-21-21 9.42-21 21-21zM144.518 385.484a7.958 7.958 0 004.388 1.317c7.905 0 11.031-10.326 4.403-14.685-75.386-49.572-93.987-151.93-41.533-224.45l46.351 37.081a7.967 7.967 0 004.993 1.753c7.511 0 10.915-9.518 5.002-14.247l-89.924-71.939C90.296 75.795 72.315 47 45 47 24.598 47 8 63.598 8 84c0 31.021 36.093 48.246 60.193 28.799l31.08 24.864c-40.417 55.589-44.43 130.249-9.701 189.889l-26.576 17.15C39.682 321.652 0 338.26 0 371c0 20.402 16.598 37 37 37 25.662 0 43.68-25.701 34.69-49.865l26.564-17.143c12.333 17.289 27.917 32.428 46.264 44.492zM24 84c0-11.579 9.42-21 21-21s21 9.421 21 21-9.42 21-21 21-21-9.421-21-21zm13 308c-11.58 0-21-9.421-21-21s9.42-21 21-21 21 9.421 21 21-9.42 21-21 21zm406-15c-20.402 0-37 16.598-37 37s16.598 37 37 37 37-16.598 37-37-16.598-37-37-37zm0 58c-11.58 0-21-9.421-21-21s9.42-21 21-21 21 9.421 21 21-9.42 21-21 21zm-41.57-67.168l-24.309-20.837c33.514-42.854 44.13-97.286 32.101-147.59l16.585-4.795c5.272 8.055 14.369 13.39 24.693 13.39 16.266 0 29.5-13.234 29.5-29.5S466.766 149 450.5 149c-16.445 0-29.951 13.581-29.479 30.339l-16.234 4.693c-7.702-22.702-20.094-43.739-36.655-61.755a8 8 0 00-11.78 10.828C383.209 162.323 398 200.285 398 240c0 104.678-100.832 181.262-202.267 151.709l12.573-36.169a8 8 0 00-4.93-10.183 8 8 0 00-10.184 4.93l-24.591 70.742C151.796 420.406 138 433.903 138 450.5c0 16.266 13.234 29.5 29.5 29.5s29.5-13.234 29.5-29.5c0-10.231-5.237-19.259-13.169-24.552l6.642-19.106c61.761 18.313 130.126 1.286 176.223-47.709l24.321 20.847a8 8 0 0011.281-.868 8 8 0 00-.868-11.28zM450.5 165c7.444 0 13.5 6.056 13.5 13.5s-6.056 13.5-13.5 13.5-13.5-6.056-13.5-13.5 6.056-13.5 13.5-13.5zm-283 299c-7.444 0-13.5-6.056-13.5-13.5s6.056-13.5 13.5-13.5 13.5 6.056 13.5 13.5-6.056 13.5-13.5 13.5zM300 328c35.841 0 65-29.159 65-65s-29.159-65-65-65-65 29.159-65 65 29.159 65 65 65zm0-114c27.019 0 49 21.981 49 49s-21.981 49-49 49-49-21.981-49-49 21.981-49 49-49zm-176 46c0 21.505 17.495 39 39 39s39-17.495 39-39-17.495-39-39-39-39 17.495-39 39zm62 0c0 12.682-10.318 23-23 23s-23-10.318-23-23 10.318-23 23-23 23 10.318 23 23zm59-120c0 8.823-7.178 16-16 16s-16-7.177-16-16 7.178-16 16-16 16 7.177 16 16z"/></svg>